<svg id="图层_1" data-name="图层 1" xmlns="http://www.w3.org/2000/svg" viewBox="0 0 2717 285"><defs><style>.cls-1{fill:#fff;fill-rule:evenodd;}</style></defs><title>FIT2CLOUD中英文Logo</title><path class="cls-1" d="M2680.2725,11.8146l-200.4019,1.5721V43.4276h195.42ZM2029.3262,135.9484a204.8173,204.8173,0,0,0,27.8293,19.7547c19.8014,11.4226,48.5,25.6768,48.5,25.6768l11.4119-45.6485a442.5857,442.5857,0,0,1-45.648-8.5577c-17.977-4.4947-35.7966-10.7011-42.6752-13.18V56.1968c1.0267-31.8184,1.6848-44.3822,1.6848-44.3822l-174.0747.0008,3.5254,29.0537h124.7155v75.6762c0,105.33,47.92,153.1307,110.159,154.6935,5.8317.1906,29.6938-1.3683,29.6938-1.3683s2.0381-7.7214,3.6958-13.6358l14.3794-34.8459s-36.67,4.6168-47.01,4.89C2058.7947,227.2535,2033.3992,194.9877,2029.3262,135.9484ZM1.6663,274.1357H67.7191V167.2619h66.0131V121.35H67.7191V65.4211h86.4431V14.4844H1.6663Zm167.8469,0H235.566V14.4844H169.5132ZM260.9651,65.4211h60.8643V274.1357h66.0531V65.4211h60.96V14.4844H260.9651ZM936.6306,14.4844H870.57V274.1357h152.3232v-50.929H936.6306Zm215.767,0c-63.229,0-114.473,42.7781-114.473,95.5857v68.5016c0,52.7952,51.244,95.564,114.473,95.564,63.2019,0,114.4443-42.7688,114.4443-95.564V110.07C1266.8419,57.2625,1215.6,14.4844,1152.3976,14.4844Zm50.7734,166.3215c0,23.42-22.73,42.4008-50.7734,42.4008-28.07,0-50.799-18.9807-50.799-42.4008V107.8228c0-23.4218,22.7286-42.4017,50.799-42.4017,28.0433,0,50.7734,18.98,50.7734,42.4017ZM1630.0267,14.4844h-99.1624V274.1357h99.1624c63.173-.0272,114.39-42.7976,114.39-95.564V110.07C1744.4165,57.29,1693.2,14.5264,1630.0267,14.4844Zm50.6894,166.3215c0,23.4061-22.6741,42.3736-50.6894,42.4008h-33.1119V65.4211h33.1119c28.0153.0265,50.6894,19.0087,50.6894,42.4017ZM672.72,110.07v68.5016c0,52.7664,51.2028,95.5368,114.3891,95.564,15.85,0,63.3971-4.329,63.3971-4.329V220.2391s-47.5475,2.94-63.3971,2.9676c-28.0144-.0272-53.5816-18.9947-53.5816-42.4008V107.8228c0-23.393,25.5672-42.3752,53.5816-42.4017,15.85,0,63.3971,2.8844,63.3971,2.8844V18.8134s-47.5475-4.329-63.3971-4.329C723.9231,14.5264,672.72,57.29,672.72,110.07Zm774.3442,70.7358c0,23.42-22.7566,42.4008-50.8,42.4008-28.072,0-50.7718-18.9807-50.7718-42.4008V14.4844h-63.7013V178.5717c0,52.7952,51.2433,95.564,114.4731,95.564s114.4988-42.7688,114.4988-95.564V14.4844h-63.6989ZM609.436,18.065c-33.8844-13.2927-95.1781-2.9708-117.6276,9.4484v57.9c26.409-17.9414,63.188-27.1813,84.2955-18.328,14.2721,5.9657,19.5447,20.3125,16.5272,34.2975-2.4776,11.4616-11.4872,22.6718-17.7166,28.8055-40.0026,39.4745-99.8973,93.24-99.8973,93.24v50.7065H647.1835V223.4292H555.3146C617.6039,176.2552,649.73,141.58,653.01,96.32,655.2247,65.49,643.1,31.2869,609.436,18.065Zm1645.3763,98.6,1.53,7.3519,34.6958-.718-16.7769-71.7214-32.4709.3166,9.1418,42.3449-46.498-.105,21.3828-46.4506-31.8992-16.05L2162.73,97.8322l2.0047,18.7559ZM2193.199,31.3523h56.987l-.0007.0078h42.9019l9.1394-26.818-135.1455.73V31.36h26.14ZM2402.05,78.9752l2.7219-21.7788h19.0554l5.4446-27.221h-78.9451l5.6-28.5107h-34.8833a305.1475,305.1475,0,0,1-8.2082,32.8288c-6.1993,19.7213-20.084,45.0512-20.084,45.0512s37.74.1183,36.5.0894c-.9019-.0217,11.6855-22.275,16.415-36.9337,2.0808-6.4465,4.1043-11.6413,4.1043-11.6413l3.2795,26.3373h13.6108l-2.7226,21.7788c-.2566,9.649-3.5222,27.93-5.4443,43.5545-.4334,3.4826-7.6243,20.1358-8.7234,23.2731-8.0249-16.3187-20.9-46.1153-21.0025-46.4561l-.5532-1.8723-34.49,1.29s17.8623,58.22,35.4273,87.7578c-5.2681,8.6541-16.1321,26.4959-25.8535,36.2453-3.3707,3.3839-10.1749,8.8307-14.52,12.2293l-.5662-22.1941L2255.38,216.905l.3025-40.2321,50.323-.042-8.5078-25.519-41.8152-.3795V135.6481h-42.3767v15.0843l-44.1526-.6348,2.74,26.5333,41.4128.042v44.1247l-46.3634,5.5892-8.0052,33.6075,127.5285-18.7878.1531-.0047-1.625,31.05A102.74,102.74,0,0,0,2318.99,255.89c12.2784-9.2648,28.3545-31.8891,31.0772-35.0365l.8977-1.0424c7.4617,10.469,15.1853,20.7738,23.862,27.9413a356.2932,356.2932,0,0,0,51.7217,35.3889l-2.7219-46.2771s-32.0044-24.7909-47.3811-52.0779c3.3706-6.06,11.0767-32.0564,14.7156-43.2006C2396.6292,124.8494,2401.7539,92.5378,2402.05,78.9752Zm313.9292,26.6228L2449.17,107.391v32.338h78.7715c-16.0019,33.9778-49.7278,99.3764-49.7278,99.3764l-15.3215,7.1395,4.6113,29.2731,192.7825-17.1348,10.71,21.4179,38.5564-17.1347-42.84-77.1084-38.9485,14.1166,17.5283,30.8631-119.9534,6.4262,44.9827-85.6761-42.3269-11.5542,182.717-.0046ZM2082.8315,84.3785c17.7719-6.5826,34.2354-17.1184,34.2354-17.1184L2099.95,33.0256s-11.0656,11.1216-28.5311,25.6752c-16.7551,13.9641-37.0877,25.6777-37.0877,25.6777l2.8526,11.4125S2062.29,91.9863,2082.8315,84.3785Z"/></svg>