<?xml version="1.0" standalone="no"?><!DOCTYPE svg PUBLIC "-//W3C//DTD SVG 1.1//EN" "http://www.w3.org/Graphics/SVG/1.1/DTD/svg11.dtd"><svg t="1632822835685" class="icon" viewBox="0 0 1026 1024" version="1.1" xmlns="http://www.w3.org/2000/svg" p-id="9902" width="56.109375" height="56" xmlns:xlink="http://www.w3.org/1999/xlink"><defs><style type="text/css"></style></defs><path d="M448.512 0q26.624 0 45.568 18.944t18.944 45.568l0 319.488q0 26.624-18.944 45.568t-45.568 18.944l-319.488 0q-26.624 0-45.568-18.944t-18.944-45.568l0-319.488q0-26.624 18.944-45.568t45.568-18.944l319.488 0zM961.536 0q26.624 0 45.056 18.944t18.432 45.568l0 319.488q0 26.624-18.432 45.568t-45.056 18.944l-320.512 0q-26.624 0-45.568-18.944t-18.944-45.568l0-319.488q0-26.624 18.944-45.568t45.568-18.944l320.512 0zM448.512 512q26.624 0 45.568 18.944t18.944 45.568l0 320.512q0 26.624-18.944 45.056t-45.568 18.432l-319.488 0q-26.624 0-45.568-18.432t-18.944-45.056l0-320.512q0-26.624 18.944-45.568t45.568-18.944l319.488 0zM961.536 512q26.624 0 45.056 18.944t18.432 45.568l0 320.512q0 26.624-18.432 45.056t-45.056 18.432l-320.512 0q-26.624 0-45.568-18.432t-18.944-45.056l0-320.512q0-26.624 18.944-45.568t45.568-18.944l320.512 0z" p-id="9903" fill="#515151"></path></svg>